<svg xmlns="http://www.w3.org/2000/svg" viewBox="0 0 88.93 88.93"><defs><style>.cls-1{fill:#99ca3c;}.cls-2{fill:none;stroke:#4d5152;stroke-miterlimit:10;stroke-width:1.93px;}.cls-3{fill:#4d5152;}.cls-4{fill:#f0ce48;}.cls-5{fill:#fff;}.cls-6{fill:#cccccb;}</style></defs><title>Asset 61</title><g id="Layer_2" data-name="Layer 2"><g id="pot"><path class="cls-1" d="M88,44.47A43.5,43.5,0,1,1,44.47,1,43.49,43.49,0,0,1,88,44.47Z"/><path class="cls-2" d="M88,44.47A43.5,43.5,0,1,1,44.47,1,43.49,43.49,0,0,1,88,44.47Z"/><path class="cls-3" d="M66.89,44.62a5.18,5.18,0,0,0-3.07-4.81c-1.37-.67-2.19-1.46-1.89-3.06,0,0,0,0-.12-.15H60.6c0-1.24,0-2.4,0-3.55A2.65,2.65,0,0,0,59,30.48a1.44,1.44,0,0,1-.64-.67,28.84,28.84,0,0,0-4.22-6.49,21.62,21.62,0,0,0-9.2-5.9,2.15,2.15,0,0,0-1.62.12c-.59.37-.4,1-.13,1.65a3.08,3.08,0,0,1-.5,3.49,10.89,10.89,0,0,1-4.16,2.7,20.24,20.24,0,0,0-5.91,3.35c-.63.57-1.26,1.35-2,1.51A2.87,2.87,0,0,0,28.3,33.3c0,1.1,0,2.19,0,3.3H26.94a5.53,5.53,0,0,0,0,.83,1.72,1.72,0,0,1-1.22,2,9.61,9.61,0,0,0-1.95,1.27c-1.58,1.29-1.89,3.15-1.9,5,0,5,.06,10,.14,15a9.22,9.22,0,0,0,2.47,6,14.26,14.26,0,0,0,11,4.94c5.75,0,11.5,0,17.25,0a15.44,15.44,0,0,0,7.86-1.91A11.55,11.55,0,0,0,67,59.29c0-1.59,0-3.17,0-4.76C67,51.23,67,47.93,66.89,44.62ZM37.9,28.1a50.32,50.32,0,0,0,5.2-2.73,5.71,5.71,0,0,0,2.71-5.2A19.37,19.37,0,0,1,56,30.11H34.73l-.11-.21C35.71,29.3,36.79,28.68,37.9,28.1Zm-7.19,7.51H41.15V33.39H30.73v-.84H58.15v4H30.71Zm34,24.55a7.68,7.68,0,0,1-2.1,5.14,11.64,11.64,0,0,1-7.71,3.94A16.12,16.12,0,0,1,53,69.4q-8.49,0-17,0a12.33,12.33,0,0,1-9.77-4.17,7.54,7.54,0,0,1-2-5.08c0-4.95,0-9.91,0-14.87a3.81,3.81,0,0,1,2.25-3.68C27.52,41,28.6,40.53,29,39.24c.06-.17.58-.25.89-.25q7.26,0,14.52,0c4.82,0,9.63,0,14.45,0a1.18,1.18,0,0,1,1.17.63,7.3,7.3,0,0,0,2.25,1.9A4.18,4.18,0,0,1,64.57,44a4.52,4.52,0,0,1,.11.9C64.68,50,64.69,55.09,64.68,60.16Z"/><path class="cls-4" d="M64.57,44a4.18,4.18,0,0,0-2.25-2.55,7.3,7.3,0,0,1-2.25-1.9A1.18,1.18,0,0,0,58.9,39c-4.82,0-9.63,0-14.45,0s-9.68,0-14.52,0c-.31,0-.83.08-.89.25-.44,1.29-1.52,1.8-2.59,2.36a3.81,3.81,0,0,0-2.25,3.68c.06,5,0,9.92,0,14.87a7.54,7.54,0,0,0,2,5.08A12.33,12.33,0,0,0,36,69.4q8.49,0,17,0a16.12,16.12,0,0,0,1.84-.16,11.64,11.64,0,0,0,7.71-3.94,7.68,7.68,0,0,0,2.1-5.14c0-5.07,0-10.14,0-15.21A4.52,4.52,0,0,0,64.57,44ZM33.21,66.42a2.3,2.3,0,0,1-1-.08,6.42,6.42,0,0,1-5.31-5.56c0-.38-.14-.76-.21-1.14a1.31,1.31,0,0,1,.92-1.44,1,1,0,0,1,1.27.58,5.52,5.52,0,0,1,.23,1.48,4.18,4.18,0,0,0,3.66,3.9c.59.07,1.2.29,1.28,1.08A1.11,1.11,0,0,1,33.21,66.42Zm22.45-11a8.77,8.77,0,0,1-6.11,5,9.31,9.31,0,0,1-5.32-.41c-.57.67-1.12,1.33-1.69,2a1.07,1.07,0,0,1-1.57.18,1.14,1.14,0,0,1-.11-1.71c.54-.65,1.12-1.27,1.68-1.91,0-.84-.6-.68-1.09-.54A7.27,7.27,0,0,1,36,57.52a7.92,7.92,0,0,1-3.65-4.19,25.32,25.32,0,0,1-2-9.56,1.5,1.5,0,0,1,2-1.5,29,29,0,0,1,8.9,4.19c.77.59,1.44,1.3,2.16,2,3.48-3.69,8-5.51,12.78-7,1.59-.5,2.46.14,2.38,1.79A30.15,30.15,0,0,1,55.66,55.47Z"/><path class="cls-5" d="M56,30.11H34.73l-.11-.21c1.09-.6,2.17-1.22,3.28-1.8a48.29,48.29,0,0,0,5.21-2.73,5.73,5.73,0,0,0,2.71-5.2A19.36,19.36,0,0,1,56,30.11Z"/><path class="cls-6" d="M30.73,32.55v.84H41.15v2.22H30.71v.93H58.15v-4Zm14.87,3H42.47v-2.1H45.6Z"/><path class="cls-3" d="M56.17,41.44c-4.74,1.47-9.3,3.29-12.78,7-.72-.66-1.39-1.37-2.16-2a29,29,0,0,0-8.9-4.19,1.5,1.5,0,0,0-2,1.5,25.32,25.32,0,0,0,2,9.56A7.92,7.92,0,0,0,36,57.52a7.27,7.27,0,0,0,5.43.55c.49-.14,1.07-.3,1.09.54-.56.64-1.14,1.26-1.68,1.91A1.14,1.14,0,0,0,41,62.23,1.07,1.07,0,0,0,42.54,62c.57-.66,1.12-1.32,1.69-2a9.31,9.31,0,0,0,5.32.41,8.77,8.77,0,0,0,6.11-5,30.15,30.15,0,0,0,2.89-12.24C58.63,41.58,57.76,40.94,56.17,41.44ZM41.58,51.81a5.46,5.46,0,0,0-.28,1.34c-.42-.56-.74-1-1.12-1.47s-.6-.72-.94-.75a1.71,1.71,0,0,0-1.22.46c-.41.44-.22,1,.15,1.44l2.41,3a3.27,3.27,0,0,1-2.82,0c-2.07-.67-3.06-2.37-3.66-4.26-.68-2.18-1.13-4.43-1.68-6.65l.32-.14a22.49,22.49,0,0,1,8,4.2C41.62,49.74,42.24,50.58,41.58,51.81Zm11.35,3.85A6.32,6.32,0,0,1,45.64,58c.73-.4,1.29-.78,1.89-1,1.52-.6,3.06-1.15,4.59-1.71.65-.23,1.07-.67.9-1.36s-.81-1-1.65-.73a8.39,8.39,0,0,1-1.79.47c1.26-1.5,2.51-3,3.78-4.48.68-.8.69-1.62,0-2.05a1,1,0,0,0-1.47.33c-1.06,1.23-2.1,2.47-3.15,3.72-.23.27-.47.54-.85,1,.07-.77.12-1.3.16-1.83a1,1,0,0,0-.88-1.19c-.75-.09-1.18.27-1.32,1.07-.29,1.64-.54,3.28-.87,4.91a6.84,6.84,0,0,1-.66,1.48,6.06,6.06,0,0,1,.52-6.4,11.86,11.86,0,0,1,4.12-3.35c2.35-1.22,4.82-2.21,7.43-3.39C55.85,47.95,55.26,52.06,52.93,55.66Z"/><path class="cls-3" d="M26.72,59.64a1.3,1.3,0,0,1,.93-1.44,1,1,0,0,1,1.26.58,5.3,5.3,0,0,1,.23,1.48,4.19,4.19,0,0,0,3.66,3.9c.59.07,1.21.29,1.28,1.08a1.09,1.09,0,0,1-.87,1.17,2.17,2.17,0,0,1-1-.07,6.42,6.42,0,0,1-5.32-5.56C26.89,60.4,26.8,60,26.72,59.64Z"/><path class="cls-3" d="M45.59,33.41v2.1H42.46v-2.1Z"/><path class="cls-1" d="M44.29,56.64a6.05,6.05,0,0,1,.52-6.4,12,12,0,0,1,4.12-3.35c2.35-1.22,4.81-2.21,7.42-3.39-.5,4.45-1.09,8.56-3.43,12.15A6.31,6.31,0,0,1,45.63,58a18.91,18.91,0,0,1,1.9-1c1.52-.6,3.06-1.15,4.59-1.71.64-.23,1.07-.67.9-1.36s-.81-1-1.66-.73a8.33,8.33,0,0,1-1.78.46c1.26-1.49,2.5-3,3.77-4.47.68-.8.69-1.63,0-2.06a1.06,1.06,0,0,0-1.48.33c-1.06,1.23-2.1,2.48-3.15,3.72l-.85,1c.07-.76.12-1.29.16-1.82a1,1,0,0,0-.89-1.19c-.75-.1-1.18.27-1.32,1.07-.29,1.64-.54,3.28-.87,4.91A7.71,7.71,0,0,1,44.29,56.64Z"/><path class="cls-1" d="M32.74,44.78a22.36,22.36,0,0,1,8,4.2c.85.76,1.47,1.6.81,2.83a5.45,5.45,0,0,0-.28,1.33c-.42-.56-.74-1-1.12-1.47s-.6-.72-.94-.75a1.68,1.68,0,0,0-1.22.47c-.42.43-.22,1,.14,1.44l2.41,3a3.26,3.26,0,0,1-2.81,0c-2.07-.67-3.07-2.37-3.66-4.26-.68-2.18-1.13-4.42-1.68-6.64Z"/></g></g></svg>