<svg xmlns="http://www.w3.org/2000/svg" viewBox="0 0 146.18 146.18"><defs><style>.cls-1{fill:#fff;}.cls-2{fill:none;stroke:#4d5152;stroke-miterlimit:10;stroke-width:3.18px;}.cls-3{fill:#d4e04e;}.cls-4{fill:#99ca3c;}.cls-5{fill:#4d5152;}</style></defs><title>Asset 57</title><g id="Layer_2" data-name="Layer 2"><g id="pot"><path class="cls-1" d="M144.59,73.09a71.5,71.5,0,1,1-71.5-71.5A71.49,71.49,0,0,1,144.59,73.09Z"/><path class="cls-2" d="M144.59,73.09a71.5,71.5,0,1,1-71.5-71.5A71.49,71.49,0,0,1,144.59,73.09Z"/><circle class="cls-3" cx="73.34" cy="73.3" r="32.87"/><path class="cls-4" d="M107.51,30.72a32.39,32.39,0,0,1-3,4C98.88,41,92.32,44.83,83.76,43.51c-1.51-.23-3.4,2.11-2.92,3.68l.33,1.06H74.79c-.29-.59-.6-1.17-.93-1.74a1.89,1.89,0,0,0-2.43-1.1,14.33,14.33,0,0,1-3.68.28c-14-.38-22.53-9.11-29.23-20.63-1-1.79-.11-3.46,1.86-4.05,1-.29,1.9-.64,2.84-1l7.6-1.61c2.85-.11,5.72-.43,8.57-.3,9,.39,16.89,5.19,17.75,17.13.13,1.71,0,3.45,0,5.26,1.85-1.61,1.85-1.61,2-3.8.61-7.48,5-11.54,10.9-12.31,5.73-.73,11.16.92,16.46,3C108.21,28,108.52,29.2,107.51,30.72Z"/><path class="cls-5" d="M95,83.44a1.79,1.79,0,0,1-2.4-1.38A2.39,2.39,0,0,0,95,83.44Z"/><path class="cls-5" d="M92.55,82a2,2,0,0,1-.19-1l.15.9Z"/><path class="cls-5" d="M55.75,84.42a2.43,2.43,0,0,0-1.93,1.73l0-.14A1.88,1.88,0,0,1,55.75,84.42Z"/><path class="cls-5" d="M55.43,84.43a1.84,1.84,0,0,0-.85.37A2,2,0,0,0,53.85,86s0,.05,0,.07a2.12,2.12,0,0,1,.3-.62,1.08,1.08,0,0,1,.17-.22,1.12,1.12,0,0,1,.23-.25,1.68,1.68,0,0,1,.27-.22l.13-.07a1.67,1.67,0,0,1,.35-.17.33.33,0,0,1,.13-.07,2,2,0,0,1,.33-.07A2,2,0,0,0,55.43,84.43ZM92.37,81c0,.07,0,.13,0,.22a1.89,1.89,0,0,0,.05.42.68.68,0,0,0,.12.28C92.47,81.62,92.42,81.32,92.37,81Zm.55,1.58a2,2,0,0,1-.33-.5l0-.05a2.37,2.37,0,0,0,.12.37,1.7,1.7,0,0,0,1.65,1.12,2.27,2.27,0,0,0,.63-.1A2.36,2.36,0,0,1,92.92,82.6Z"/><path class="cls-5" d="M50.21,81.41l-8-25.67A3,3,0,0,1,45,51.9H63.63c-1.36-1.66.61-4.63,2.76-3.35L73.8,53a2.3,2.3,0,0,1,0,3.84l-7.41,4.46c-2.15,1.28-4.11-1.69-2.76-3.35H49.05q3.38,10.92,6.77,21.83C57,83.52,51.36,85.1,50.21,81.41Z"/><path class="cls-5" d="M95.54,89.73q-2.62,8-5.23,16.1a3,3,0,0,1-2.81,2.22l-26,0a3,3,0,0,1-2.81-2.22c-1-3.07-2-6.13-3-9.18-1.16,1.69-4.33.48-3.78-2l1.82-8.21h0c0-.11.05-.21.07-.32l0-.14a1.88,1.88,0,0,1,1.9-1.59h0a2,2,0,0,1,1.63.61c2.1,2,4.18,4.05,6.27,6.07,1.84,1.8-.53,4.56-2.5,3.55.81,2.46,1.6,4.92,2.41,7.38l21.8,0c1.51-4.63,3-9.25,4.51-13.88C91.11,84.43,96.74,86,95.54,89.73Z"/><path class="cls-5" d="M82.57,43.78a1.49,1.49,0,0,1,.48-.2,1.53,1.53,0,0,1,.72-.07c.2,0,.42.05.62.07a8.2,8.2,0,0,0,1.1.12c.53.05,1,.07,1.53.07a18.57,18.57,0,0,0,5.05-.65.6.6,0,0,0,.18-.07c.33-.08.65-.18,1-.28s.43-.15.63-.23a27.59,27.59,0,0,0,10.63-7.77,34.33,34.33,0,0,0,3.05-4c.77-1.15.77-2.12,0-2.8a1.85,1.85,0,0,0-.27-.2,3.11,3.11,0,0,0-.67-.33c-5.28-2.07-10.72-3.72-16.45-3a11.73,11.73,0,0,0-8.73,5.33,11.33,11.33,0,0,0-1,2,13.66,13.66,0,0,0-.73,2.33,20.32,20.32,0,0,0-.4,2.63A9.49,9.49,0,0,1,79,38.37c-.2.73-.62,1.1-1.82,2.15,0-.8,0-1.57,0-2.33,0-1,0-2-.08-2.93C76.27,23.3,68.37,18.5,59.38,18.12c-1.65-.07-3.32,0-5,.1-1.2.08-2.4.17-3.6.2L43.21,20c-.93.33-1.87.68-2.83,1-2,.6-2.9,2.27-1.87,4A56,56,0,0,0,47,36.53a30.76,30.76,0,0,0,9.75,6.82h0c.82.35,1.65.67,2.52,1a30.59,30.59,0,0,0,8.43,1.38,19.78,19.78,0,0,0,2.22,0,9,9,0,0,0,1.47-.23,1.82,1.82,0,0,1,2.08.57,1.62,1.62,0,0,1,.18.25c.05.08.12.18.17.28.32.57.63,1.13.92,1.73v0A20.94,20.94,0,0,1,77,54.65v0A2.87,2.87,0,0,0,79.82,58H99.43c-1.43,4.62-2.88,9.27-4.3,13.88-.58-2.65-4.57-1.45-4.1,1.32.45,2.62.88,5.23,1.33,7.87,0,.07,0,.13,0,.22a1.89,1.89,0,0,0,.05.42.68.68,0,0,0,.12.28.31.31,0,0,0,0,.12,2.37,2.37,0,0,0,.12.37,1.7,1.7,0,0,0,1.65,1.12,2.27,2.27,0,0,0,.63-.1h0a2,2,0,0,0,1.13-.53c2.18-1.88,4.38-3.82,6.57-5.72,1.75-1.53,0-4-1.93-3.68,1.57-5,3.12-10.08,4.7-15.1.28-.88.55-1.77.83-2.65a3.06,3.06,0,0,0-2.83-3.85h-21c-.45-1.23-.87-2.43-1.28-3.65v0c0-.08-.05-.17-.08-.23-.07-.28-.15-.55-.23-.82,0-.08-.05-.17-.07-.25a3.46,3.46,0,0,1,1.32-2.82A2.71,2.71,0,0,1,82.57,43.78Zm.37-7.8c.78-3.65,2.32-6.2,5.48-7.22,5.1-1.67,9.9-.18,14.78,1.38-3.93,6.6-12.65,11-18.4,9.48l-.28-.08c2.93-4.47,6.6-7.77,11.78-9C91.2,30.3,87,32.68,82.93,36ZM63.57,40c-7.37-1.5-14.8-7.58-18.73-14.77,5.52-1.45,11-2.52,16.72-1.6,6.28,1,9.67,4.68,10.43,11.58-5.23-5-10.77-8.57-17.77-8.87,6.82,3.08,12.67,8,14.6,12.27a8,8,0,0,1,.55,1.57A15.5,15.5,0,0,1,63.57,40Z"/></g></g></svg>