<svg xmlns="http://www.w3.org/2000/svg" viewBox="0 0 88.93 88.93"><defs><style>.cls-1{fill:#f0ce48;}.cls-2{fill:none;stroke:#4d5152;stroke-miterlimit:10;stroke-width:1.93px;}.cls-3{fill:#99ca3c;}.cls-4{fill:#4d5152;}</style></defs><title>Asset 60</title><g id="Layer_2" data-name="Layer 2"><g id="pot"><path class="cls-1" d="M44.47,1A43.5,43.5,0,1,0,88,44.46,43.49,43.49,0,0,0,44.47,1Zm0,65.3A21.75,21.75,0,1,1,66.22,44.51,21.75,21.75,0,0,1,44.47,66.26Z"/><path class="cls-2" d="M88,44.47A43.5,43.5,0,1,1,44.47,1,43.51,43.51,0,0,1,88,44.47Z"/><path class="cls-3" d="M62.72,41.1a9.12,9.12,0,0,1-3,4.32,6.69,6.69,0,0,1-7.6.66l-1.84,2c.55,0,1.1,0,1.65,0a3.18,3.18,0,0,1,.82.1c.59.15,1.07.45,1,1.15s-.56,1-1.25,1c-1.27,0-2.55,0-3.82,0a2,2,0,0,0-1,.41,4.51,4.51,0,0,0-2.15,3.54c-.64,0-1.29,0-1.94,0,0-.49,0-1,0-1.5,0-.29-.4-.57-.6-.86a3.82,3.82,0,0,0-4-1.68,15.75,15.75,0,0,1-2.38,0,1,1,0,0,1-1.14-.9.93.93,0,0,1,.84-1.15c.85-.14,1.72-.16,2.45-.22l-1.74-1.75a11.8,11.8,0,0,1-3,.73,7.19,7.19,0,0,1-5.82-2.79,14.28,14.28,0,0,1-2.75-7c-.2-1.52-.31-3-.49-4.77a24.45,24.45,0,0,1,3.3.42,50.47,50.47,0,0,1,6.38,2.06,7.7,7.7,0,0,1,4.64,4.84A4.79,4.79,0,0,1,39,43.43a1.3,1.3,0,0,0,.4,2,6.66,6.66,0,0,1,.56.52v-1c0-1,.47-1.67,1.08-1.64s1.12.67,1.13,1.6a11.88,11.88,0,0,1,0,1.79,2.44,2.44,0,0,0,1.32,2.64,3.81,3.81,0,0,0,0-.46c0-2.66,0-5.32,0-8a1.78,1.78,0,0,0-.44-1c-.79-.85-1.64-1.65-2.45-2.48-.61-.63-.65-1.16-.15-1.68a1.21,1.21,0,0,1,1.71.19L43.25,37l.26.16c0-1,0-1.85,0-2.73,0-.21-.4-.48-.67-.56a5.88,5.88,0,0,1-4.17-6.23A15.13,15.13,0,0,1,40,23a18,18,0,0,1,3.82-5.54l.4-.36c2.46,2.33,4.75,4.7,5.85,8a7,7,0,0,1-2.9,8.3,13.86,13.86,0,0,1-1.56.68v3.31c.54-.52,1-.9,1.36-1.31s1-.76,1.59-.21.55,1.08-.06,1.74l-.18.18c-.91.93-2.17,1.72-2.63,2.83s-.11,2.57-.11,3.87c0,1.67,0,3.33,0,5.13.82-.67,1.53-1.2,1.38-2.36a18.07,18.07,0,0,1,0-2.55c0-.76.59-1.46,1.19-1.35a1.24,1.24,0,0,1,1,1.35c0,.41,0,.83,0,1.38.46-.51.84-.87,1.15-1.29a.75.75,0,0,0,.07-.65c-1.77-3.15-.12-6.73,3-8.61a21.48,21.48,0,0,1,8-2.74l2.75-.4A21,21,0,0,1,62.72,41.1Z"/><path class="cls-4" d="M64.05,32.36l-2.75.4a21.48,21.48,0,0,0-8,2.74c-3.1,1.88-4.75,5.46-3,8.61a.75.75,0,0,1-.07.65c-.31.42-.69.78-1.15,1.29,0-.55,0-1,0-1.38a1.24,1.24,0,0,0-1-1.35c-.6-.11-1.17.59-1.19,1.35a18.07,18.07,0,0,0,0,2.55c.15,1.16-.56,1.69-1.38,2.36,0-1.8,0-3.46,0-5.13,0-1.3-.34-2.75.11-3.87s1.72-1.9,2.63-2.83l.18-.18c.61-.66.63-1.22.06-1.74S47.43,35.55,47,36s-.82.79-1.36,1.31V34a13.86,13.86,0,0,0,1.56-.68,7,7,0,0,0,2.9-8.3c-1.1-3.29-3.39-5.66-5.85-8l-.4.36A18,18,0,0,0,40,23a15.13,15.13,0,0,0-1.34,4.67,5.88,5.88,0,0,0,4.17,6.23c.27.08.65.35.67.56.08.88,0,1.77,0,2.73L43.25,37l-1.08-1.08a1.21,1.21,0,0,0-1.71-.19c-.5.52-.46,1,.15,1.68.81.83,1.66,1.63,2.45,2.48a1.78,1.78,0,0,1,.44,1c0,2.66,0,5.32,0,8a3.81,3.81,0,0,1,0,.46,2.44,2.44,0,0,1-1.32-2.64,11.88,11.88,0,0,0,0-1.79c0-.93-.47-1.58-1.13-1.6S40,44,40,44.95v1a6.66,6.66,0,0,0-.56-.52,1.3,1.3,0,0,1-.4-2,4.79,4.79,0,0,0,.17-3.74,7.7,7.7,0,0,0-4.64-4.84,50.47,50.47,0,0,0-6.38-2.06,24.45,24.45,0,0,0-3.3-.42c.18,1.72.29,3.25.49,4.77a14.28,14.28,0,0,0,2.75,7A7.19,7.19,0,0,0,33.9,47a11.8,11.8,0,0,0,3-.73L38.66,48c-.73.06-1.6.08-2.45.22a.93.93,0,0,0-.84,1.15,1,1,0,0,0,1.14.9,15.75,15.75,0,0,0,2.38,0,3.82,3.82,0,0,1,4,1.68c.2.29.58.57.6.86,0,.5,0,1,0,1.5,0,.91,0,1.79,0,2.64a20.54,20.54,0,0,0-2.49.72c-1.27.57-2.52,1.36-2.58,2.9-.13,3.36-.1,6.73-.11,10.09,0,.64.27,1.17,1,1.21s1.1-.41,1.11-1.25c0-3,0-6,0-9a1.83,1.83,0,0,1,1.1-1.79,17.13,17.13,0,0,1,2-.76v1.08c0,3.49,0,7,0,10.45,0,.77.29,1.19,1,1.28s1-.45,1-1.3V60.1c0-.3,0-.59,0-.92.32,0,.54.06.75.11a2.48,2.48,0,0,1,2.27,2.83c0,2.84,0,5.67,0,8.5a1.42,1.42,0,0,0,.5,1c.8.56,1.62-.06,1.63-1.22,0-.78-.1-1.57-.11-2.35,0-2.33,0-4.65,0-7a3.13,3.13,0,0,0-1-2.45A7.7,7.7,0,0,0,45.56,57a7.57,7.57,0,0,0,0-1.43,5.39,5.39,0,0,1-.08-1.31,4.51,4.51,0,0,1,2.15-3.54,2,2,0,0,1,1-.41c1.27,0,2.55,0,3.82,0,.69,0,1.16-.26,1.25-1s-.38-1-1-1.15a3.18,3.18,0,0,0-.82-.1c-.55,0-1.1,0-1.65,0l1.84-2a6.69,6.69,0,0,0,7.6-.66,9.12,9.12,0,0,0,3-4.32A21,21,0,0,0,64.05,32.36ZM36.89,42.9c-1.12-1.13-2.17-2.2-3.23-3.25a1.06,1.06,0,0,0-1.36-.27,1,1,0,0,0-.49,1.21,1.44,1.44,0,0,0,.42.68c1,1,2.08,2.08,3.2,3.2A4.5,4.5,0,0,1,31.05,44c-1.83-1.15-2.56-3.05-3.14-5-.4-1.34-.56-2.76-.84-4.23a19.46,19.46,0,0,1,8.33,3.1A4.18,4.18,0,0,1,36.89,42.9ZM43.52,28c0,1.21,0,2.43,0,3.72a2.68,2.68,0,0,1-1.88-1.17A4.83,4.83,0,0,1,41,26a18,18,0,0,1,3.21-5.85,12.24,12.24,0,0,1,4,6.45,4.61,4.61,0,0,1-1.82,4.68,4.12,4.12,0,0,1-.85.38c0-1.31,0-2.49,0-3.67,0-.87-.36-1.35-1-1.35S43.52,27.13,43.52,28Zm18,9.48c-.46,2.2-1.08,4.35-2.79,5.94a4.74,4.74,0,0,1-5,1.12c1.19-1.2,2.29-2.33,3.41-3.45a1,1,0,0,0,.06-1.53,1,1,0,0,0-1.55,0c-.79.72-1.52,1.52-2.3,2.26-.38.36-.8.67-1.22,1-.94-1.82.17-4,1.54-5A17.81,17.81,0,0,1,61.1,35c.21,0,.42-.12.84-.23C61.8,35.73,61.71,36.63,61.53,37.5Z"/></g></g></svg>