<svg xmlns="http://www.w3.org/2000/svg" viewBox="0 0 37 37"><defs><style>.cls-1{fill:#fff;}</style></defs><title>Asset 77</title><g id="Layer_2" data-name="Layer 2"><g id="pot"><path class="cls-1" d="M37,37H29.12V36c0-4.09,0-8.17,0-12.26A11.65,11.65,0,0,0,28.78,21a3.81,3.81,0,0,0-6-2.31,4.57,4.57,0,0,0-2,3.91q0,6.73,0,13.46V37H12.85V12.09h7.86v3.4c.27-.35.43-.53.57-.73a7.79,7.79,0,0,1,7.54-3.26c5.28.48,7.46,4.46,8,8.44A24.73,24.73,0,0,1,37,23c0,4.35,0,8.7,0,13.06Z"/><path class="cls-1" d="M.54,12.09H8.32V37H.54Z"/><path class="cls-1" d="M4.48,0a4,4,0,0,1,4,2.32A4.3,4.3,0,0,1,8.06,6.9,4.77,4.77,0,0,1,2.07,8,4.38,4.38,0,0,1,.23,2.85,4.21,4.21,0,0,1,4.48,0Z"/></g></g></svg>