<svg xmlns="http://www.w3.org/2000/svg" viewBox="0 0 88.93 88.93"><defs><style>.cls-1{fill:#f0ce48;}.cls-2{fill:#99ca3c;}.cls-3{fill:#4d5152;}.cls-4{fill:none;stroke:#4d5152;stroke-miterlimit:10;stroke-width:1.93px;}</style></defs><title>Asset 59</title><g id="Layer_2" data-name="Layer 2"><g id="pot"><circle class="cls-1" cx="44.47" cy="44.47" r="21.75"/><path class="cls-2" d="M72.86,42.81A43,43,0,0,1,70.53,48a61,61,0,0,1-4.1,6.4c-2.11,2.84-4.77,5-8.43,5.52a9.72,9.72,0,0,1-6.17-1.3c-.9-.52-1.63-.78-2.56.05S47.07,60.22,46,61a1.3,1.3,0,0,0-.45.9c0,1.35,0,2.71,0,4.06h-1l-1.16,0c0-1.35,0-2.71,0-4.06a1.32,1.32,0,0,0-.46-.9c-1.25-1-2.52-1.89-3.84-2.75a1.36,1.36,0,0,0-1.18,0A11.81,11.81,0,0,1,31.63,60a10.39,10.39,0,0,1-6.22-2.52,26.79,26.79,0,0,1-6.59-8.75c-1-1.87-1.84-3.77-2.66-5.7-.56-1.31.05-2.19,1.46-2.35A36.18,36.18,0,0,1,25.7,41a27.81,27.81,0,0,1,7.54,1.8c3.29,1.35,5.74,3.5,6.75,7a12.42,12.42,0,0,1,.11,5.85c0,.26-.07.67.08.78,1,.78,2,1.5,3.21,2.33,0-4.12-.12-8.06.05-12,.07-1.8-.55-2.59-2.12-3.4a10.71,10.71,0,0,1-6.18-9.88,22.67,22.67,0,0,1,2.18-9.32,53.77,53.77,0,0,1,5.5-9.75c1-1.42,2.35-1.47,3.26,0,1.49,2.41,3,4.79,4.35,7.28a33.36,33.36,0,0,1,3.32,9.44c.91,4.66-1.65,10.16-6,12.14A3.34,3.34,0,0,0,45.48,47c.19,3.83.06,7.69.06,11.73,1.15-.81,2.17-1.49,3.13-2.23a1.05,1.05,0,0,0,.17-.85c-.62-3.18-.42-6.22,1.54-8.92a12.14,12.14,0,0,1,6.18-4.33,31.83,31.83,0,0,1,8.23-1.62c1.44-.09,2.87-.28,4.31-.33a13.57,13.57,0,0,1,2.73.19A1.57,1.57,0,0,1,72.86,42.81Z"/><path class="cls-3" d="M71.81,40.67a13.57,13.57,0,0,0-2.73-.19c-1.44.05-2.88.24-4.31.33a31.83,31.83,0,0,0-8.23,1.62,12.14,12.14,0,0,0-6.18,4.33c-2,2.7-2.16,5.74-1.54,8.92a1.05,1.05,0,0,1-.17.85c-1,.74-2,1.42-3.13,2.23,0-4,.13-7.9-.06-11.73a3.34,3.34,0,0,1,2.3-3.75c4.32-2,6.89-7.48,6-12.14a33.36,33.36,0,0,0-3.32-9.44c-1.34-2.49-2.87-4.88-4.35-7.28-.9-1.45-2.27-1.4-3.26,0a53.77,53.77,0,0,0-5.5,9.75,22.67,22.67,0,0,0-2.18,9.32,10.71,10.71,0,0,0,6.18,9.88c1.57.81,2.19,1.6,2.12,3.4-.17,3.92-.05,7.85-.05,12-1.16-.83-2.21-1.55-3.21-2.33-.14-.11-.13-.53-.08-.78A12.42,12.42,0,0,0,40,49.79c-1-3.52-3.46-5.67-6.75-7A27.81,27.81,0,0,0,25.7,41a36.18,36.18,0,0,0-8.08-.34c-1.41.16-2,1-1.46,2.35.82,1.93,1.7,3.83,2.66,5.7a26.79,26.79,0,0,0,6.59,8.75A10.39,10.39,0,0,0,31.63,60a11.81,11.81,0,0,0,6.26-1.7,1.36,1.36,0,0,1,1.18,0c1.32.86,2.59,1.79,3.84,2.75a1.32,1.32,0,0,1,.46.9c0,1.35,0,2.71,0,4.06V69.2h2.15v-.65c0-.85,0-1.7,0-2.56,0-1.35,0-2.71,0-4.06A1.3,1.3,0,0,1,46,61c1.07-.81,2.27-1.47,3.26-2.36s1.66-.57,2.56-.05A9.72,9.72,0,0,0,58,59.91c3.66-.48,6.32-2.68,8.43-5.52a61,61,0,0,0,4.1-6.4,43,43,0,0,0,2.33-5.18A1.57,1.57,0,0,0,71.81,40.67ZM38.22,53.79a5.55,5.55,0,0,0,0,1.14,2,2,0,0,1-1.6-1.44c-.43-1.66-.82-3.34-1.29-5-.16-.58-.44-1.21-1.26-1.06s-1,.73-.78,1.59.49,2,.79,3.18a13.6,13.6,0,0,1-2.76-2,7.39,7.39,0,0,1-.8-2.53A16.15,16.15,0,0,1,30,45.9c-.13-.77-.63-.88-1.23-.78s-.86.67-.76,1.27.25,1.06.44,1.87l-3-2.06c-.81-.55-1.37-.54-1.74.12s-.07,1.18.56,1.59c.9.58,1.75,1.23,2.79,2-.6.11-1,.16-1.43.25a1.06,1.06,0,0,0-1,1.22,1,1,0,0,0,1.17.91,25.59,25.59,0,0,0,2.86-.43,1.75,1.75,0,0,1,1.64.3c.6.47,1.24.9,2,1.47-1,.15-1.67.25-2.37.38s-1.17.44-1,1.23.7.87,1.32.81a15.33,15.33,0,0,0,3.21-.44,2.71,2.71,0,0,1,3,.94,8,8,0,0,1-9.26-.35,21.66,21.66,0,0,1-5.65-6.91c-1.1-2-2.08-4.1-3.1-6.16a1.28,1.28,0,0,1-.07-.36c.09,0,.16-.11.24-.11a41.59,41.59,0,0,1,13.1,1.79c2.52.87,4.76,2.18,5.87,4.79A7.23,7.23,0,0,1,38.22,53.79Zm5.17-25.64c0,.28,0,.55,0,.6-.49-.4-1.06-.81-1.57-1.29a1,1,0,1,0-1.5,1.4c.9,1,1.78,2,2.62,3A2.12,2.12,0,0,1,43.37,33c.06,1.12,0,2.25,0,3.63-1-1.06-1.79-1.91-2.58-2.79a.94.94,0,0,0-1.47-.09,1,1,0,0,0,0,1.47,41,41,0,0,0,2.85,3.14A3.5,3.5,0,0,1,43.31,42a9.14,9.14,0,0,1-6-7.57c-.32-3.54.82-6.72,2.17-9.86a50.77,50.77,0,0,1,5-8.9c.92,1.45,1.86,2.78,2.63,4.2a38.24,38.24,0,0,1,3.77,8.54A18.8,18.8,0,0,1,51.75,33a9,9,0,0,1-6.14,9,3.48,3.48,0,0,1,1.09-3.58,28.59,28.59,0,0,0,3-3.28.91.91,0,0,0-.14-1.42,1.38,1.38,0,0,0-1.3.09c-.9.8-1.68,1.73-2.66,2.77a24.38,24.38,0,0,1,.07-4.19c.13-.68,1-1.22,1.48-1.82s1.06-1.19,1.6-1.77a1,1,0,0,0-.1-1.42.92.92,0,0,0-1.32,0l-1.74,1.43v-2c0-.77,0-1.55,0-2.32a1.07,1.07,0,0,0-2.14,0C43.37,25.71,43.39,26.94,43.39,28.16ZM70.22,43.8a41.24,41.24,0,0,1-5.64,9.64c-1.68,2.06-3.66,3.87-6.45,4.3a8.22,8.22,0,0,1-5.73-1.2c.81-.42,1.18-1.35,2.36-1.1,1.4.3,2.84.38,4.26.57.61.09,1-.27.95-.76a1.52,1.52,0,0,0-.64-1.14,15.16,15.16,0,0,0-2.55-.49A4.4,4.4,0,0,1,61.44,52a15.45,15.45,0,0,0,1.64.28,1,1,0,0,0,1.22-.86,1.12,1.12,0,0,0-1-1.28l-1.41-.22c1.07-.77,2-1.45,2.91-2.06a1.06,1.06,0,0,0,.49-1.48c-.31-.64-1-.72-1.67-.25-1,.67-2,1.35-3.13,2.16.16-.67.27-1.12.38-1.56.22-.85,0-1.43-.64-1.59s-1.18.12-1.42,1-.39,1.64-.61,2.46c-.49,1.83-.55,1.88-3.32,3.48.27-1.06.51-2.05.76-3s0-1.44-.72-1.6-1.13.47-1.29,1c-.48,1.65-.87,3.32-1.29,5-.2.79-.8,1.14-1.51,1.47a9.53,9.53,0,0,1,.58-5.85,8.51,8.51,0,0,1,4.86-4.34A25.63,25.63,0,0,1,64.59,43c2-.12,3.93-.29,6.08-.46C70.48,43.06,70.38,43.45,70.22,43.8Z"/><circle class="cls-4" cx="44.47" cy="44.47" r="43.5"/></g></g></svg>