<svg xmlns="http://www.w3.org/2000/svg" viewBox="0 0 55 53"><defs><style>.cls-1{fill:#fff;}</style></defs><title>Asset 68</title><g id="Layer_2" data-name="Layer 2"><g id="pot"><path class="cls-1" d="M54.43,43.76a19.82,19.82,0,0,0-2-2.06c-1.35-1.27-2.71-2.52-4.06-3.79-.68-.65-1.35-1.3-2-1.94-.51-.47-1-1-1.57-1.38a3.31,3.31,0,0,0-3.68-.4,11.28,11.28,0,0,0-1.43,1L37,32.75,34,36l2.66,2.48-.09.11a3.58,3.58,0,0,0,.06,5.31c.63.62,1.32,1.19,2,1.8L41.09,48c1.43,1.33,2.87,2.65,4.27,4a3.57,3.57,0,0,0,5,0c1.29-1.32,2.54-2.68,3.81-4A3.48,3.48,0,0,0,54.43,43.76Zm-2.89,2.13c-.92,1-1.81,1.92-2.72,2.88-.23.24-.44.49-.66.74s-.36.23-.58,0l-2.89-2.7-3.94-3.67c-.59-.55-1.18-1.08-1.78-1.6-.29-.25-.23-.46,0-.69.37-.4.74-.81,1.12-1.19.74-.79,1.48-1.57,2.22-2.35a1.7,1.7,0,0,1,.28-.22,2.9,2.9,0,0,1,.38.29l3.33,3.13,3.9,3.64c.45.42.9.84,1.36,1.25C51.72,45.58,51.71,45.7,51.54,45.88Z"/><path class="cls-1" d="M19.94,0a19.88,19.88,0,1,0,6.54,38.66,19.86,19.86,0,0,0,13.4-18.78A19.92,19.92,0,0,0,19.94,0ZM30.75,31.56a15.52,15.52,0,0,1-2.69,2,15.9,15.9,0,1,1,7.83-13.69A15.7,15.7,0,0,1,33,29H26.64c-.15-.44-.29-.86-.44-1.29h0s0-.06,0-.08-.06-.19-.08-.29l0-.09a1.27,1.27,0,0,1,.45-1l.16-.12a.61.61,0,0,1,.17-.07.44.44,0,0,1,.25,0l.21,0a2.33,2.33,0,0,0,.37,0l.53,0a6.12,6.12,0,0,0,1.72-.24l.06,0,.33-.1.22-.08A9.46,9.46,0,0,0,34.17,23a12.24,12.24,0,0,0,1-1.43c.26-.41.26-.76,0-1a.35.35,0,0,0-.09-.07,1,1,0,0,0-.23-.12,11.13,11.13,0,0,0-5.62-1.05,4,4,0,0,0-3,1.89,3.91,3.91,0,0,0-.36.71,5.75,5.75,0,0,0-.25.83,6.45,6.45,0,0,0-.13.92,4.37,4.37,0,0,1-.08.6c-.07.26-.21.39-.62.76,0-.28,0-.56,0-.83s0-.7,0-1c-.3-4.22-3-5.92-6.06-6.05a16.26,16.26,0,0,0-1.7,0c-.41,0-.82.06-1.23.07l-2.6.58c-.32.12-.64.24-1,.34a1,1,0,0,0-.64,1.43,19.45,19.45,0,0,0,2.91,4.06A10.55,10.55,0,0,0,17.87,26h0l.86.34a10.22,10.22,0,0,0,2.88.49c.26,0,.51,0,.76,0a3,3,0,0,0,.51-.08.6.6,0,0,1,.71.2l.06.09.06.1c.11.2.22.4.32.61h0A8,8,0,0,1,24.79,30v.1a1,1,0,0,0,1,1.06h5.42C31,31.29,30.89,31.43,30.75,31.56Zm-3.94-8.17a3,3,0,0,1,1.87-2.55c1.74-.59,3.38-.06,5.05.49-1.35,2.34-4.33,3.91-6.29,3.36a.38.38,0,0,0-.1,0,6.64,6.64,0,0,1,4-3.18A6.55,6.55,0,0,0,26.81,23.39ZM22,24.32a2.63,2.63,0,0,1,.19.56,5.15,5.15,0,0,1-2-.07,10.27,10.27,0,0,1-6.4-5.22A13.44,13.44,0,0,1,19.51,19c2.14.37,3.3,1.66,3.57,4.1-1.79-1.78-3.69-3-6.08-3.13C19.33,21.08,21.33,22.82,22,24.32Z"/><path class="cls-1" d="M35.21,20.54a.35.35,0,0,0-.09-.07,1,1,0,0,0-.23-.12,11.13,11.13,0,0,0-5.62-1.05,4,4,0,0,0-3,1.89,3.91,3.91,0,0,0-.36.71,5.75,5.75,0,0,0-.25.83,6.45,6.45,0,0,0-.13.92,4.37,4.37,0,0,1-.08.6c-.07.26-.21.39-.62.76,0-.28,0-.56,0-.83s0-.7,0-1c-.3-4.22-3-5.92-6.06-6.05a16.26,16.26,0,0,0-1.7,0c-.41,0-.82.06-1.23.07l-2.6.58c-.32.12-.64.24-1,.34a1,1,0,0,0-.64,1.43,19.45,19.45,0,0,0,2.91,4.06A10.55,10.55,0,0,0,17.87,26h0l.86.34a10.22,10.22,0,0,0,2.88.49c.26,0,.51,0,.76,0a3,3,0,0,0,.51-.08.6.6,0,0,1,.71.2l.06.09.06.1c.11.2.22.4.32.61h0A8,8,0,0,1,24.79,30v.1a1,1,0,0,0,1,1.06h5.42A15.48,15.48,0,0,0,33,29H26.64c-.15-.44-.29-.86-.44-1.29h0s0-.06,0-.08-.06-.19-.08-.29l0-.09a1.27,1.27,0,0,1,.45-1l.16-.12a.61.61,0,0,1,.17-.07.44.44,0,0,1,.25,0l.21,0a2.33,2.33,0,0,0,.37,0l.53,0a6.12,6.12,0,0,0,1.72-.24l.06,0,.33-.1.22-.08A9.46,9.46,0,0,0,34.17,23a12.24,12.24,0,0,0,1-1.43C35.48,21.12,35.48,20.77,35.21,20.54ZM17,20c2.33,1.09,4.34,2.83,5,4.33a2.63,2.63,0,0,1,.19.56,5.15,5.15,0,0,1-2-.07,10.27,10.27,0,0,1-6.4-5.22A13.44,13.44,0,0,1,19.51,19c2.14.37,3.3,1.66,3.57,4.1C21.28,21.34,19.39,20.1,17,20Zm10.46,4.69a.38.38,0,0,0-.1,0,6.64,6.64,0,0,1,4-3.18,6.55,6.55,0,0,0-4.57,1.92,3,3,0,0,1,1.87-2.55c1.74-.59,3.38-.06,5.05.49C32.4,23.66,29.42,25.23,27.45,24.68Z"/><path class="cls-1" d="M26.68,26.14a.61.61,0,0,1,.17-.07.44.44,0,0,1,.25,0l.21,0a2.33,2.33,0,0,0,.37,0l.53,0a6.12,6.12,0,0,0,1.72-.24l.06,0,.33-.1.22-.08A9.46,9.46,0,0,0,34.17,23a12.24,12.24,0,0,0,1-1.43c.26-.41.26-.76,0-1a.35.35,0,0,0-.09-.07,1,1,0,0,0-.23-.12,11.13,11.13,0,0,0-5.62-1.05,4,4,0,0,0-3,1.89,3.91,3.91,0,0,0-.36.71,5.75,5.75,0,0,0-.25.83,6.45,6.45,0,0,0-.13.92,4.37,4.37,0,0,1-.08.6c-.07.26-.21.39-.62.76,0-.28,0-.56,0-.83s0-.7,0-1c-.3-4.22-3-5.92-6.06-6.05a16.26,16.26,0,0,0-1.7,0c-.41,0-.82.06-1.23.07l-2.6.58c-.32.12-.64.24-1,.34a1,1,0,0,0-.64,1.43,19.45,19.45,0,0,0,2.91,4.06A10.55,10.55,0,0,0,17.87,26h0l.86.34a10.22,10.22,0,0,0,2.88.49c.26,0,.51,0,.76,0a3,3,0,0,0,.51-.08.6.6,0,0,1,.71.2l.06.09.06.1c.11.2.22.4.32.61h0A8,8,0,0,1,24.79,30v.1a1,1,0,0,0,1,1.06h6.71c-.08.25-.15.51-.23.76a14.1,14.1,0,0,0,2.45-2.36,1,1,0,0,0-.86-.54H26.64c-.15-.44-.29-.86-.44-1.29h0s0-.06,0-.08-.06-.19-.08-.29l0-.09a1.27,1.27,0,0,1,.45-1Zm2-5.31c1.74-.59,3.38-.06,5.05.49-1.35,2.34-4.33,3.91-6.29,3.36a.38.38,0,0,0-.1,0,6.64,6.64,0,0,1,4-3.18,6.55,6.55,0,0,0-4.57,1.92A3,3,0,0,1,28.69,20.83ZM17,20c2.33,1.09,4.34,2.83,5,4.33a2.63,2.63,0,0,1,.19.56,5.15,5.15,0,0,1-2-.07,10.27,10.27,0,0,1-6.4-5.22A13.44,13.44,0,0,1,19.51,19c2.14.37,3.3,1.66,3.57,4.1C21.28,21.34,19.39,20.1,17,20Z"/></g></g></svg>