<svg xmlns="http://www.w3.org/2000/svg" viewBox="0 0 20 37"><defs><style>.cls-1{fill:#fff;}</style></defs><title>Asset 76</title><g id="Layer_2" data-name="Layer 2"><g id="pot"><path class="cls-1" d="M6.71,9.27h9.81c1.61,0,2.94,1.34,3.35,3.38A5.48,5.48,0,0,1,18.24,18a2.61,2.61,0,0,1-1.65.56H6.73l0,.14c0,1.62,0,3.24,0,4.86.06,2,1.28,3.79,2.71,4.1a3.43,3.43,0,0,0,.69.06h6.27a2.68,2.68,0,0,1,1.6.4,4.63,4.63,0,0,1,1.94,3.47,5.41,5.41,0,0,1-1.32,4.5,2.52,2.52,0,0,1-1.86.89c-2.41,0-4.83,0-7.24,0a7.45,7.45,0,0,1-5.06-2.28,14.33,14.33,0,0,1-3.9-6.85A17.23,17.23,0,0,1,0,24c0-.52,0-1,0-1.57Q0,13.58,0,4.71A5.65,5.65,0,0,1,.81,1.6,3.1,3.1,0,0,1,3,0,2.86,2.86,0,0,1,5.88,1.59a5.65,5.65,0,0,1,.83,3.14q0,2.15,0,4.3Z"/></g></g></svg>